<svg width="300" height="200" viewBox="0 0 300 200" fill="none" xmlns="http://www.w3.org/2000/svg">
  <defs>
    <radialGradient id="beefGradient" cx="40%" cy="30%" r="70%">
      <stop offset="0%" stop-color="#8b4513"/>
      <stop offset="50%" stop-color="#a0522d"/>
      <stop offset="100%" stop-color="#654321"/>
    </radialGradient>
    <filter id="shadow" x="-20%" y="-20%" width="140%" height="140%">
      <feDropShadow dx="2" dy="3" stdDeviation="3" flood-opacity="0.3"/>
    </filter>
  </defs>
  
  <rect width="300" height="200" fill="#fdf6e3"/>
  
  <!-- Plate -->
  <ellipse cx="150" cy="160" rx="110" ry="20" fill="#f5f5f5"/>
  <ellipse cx="150" cy="157" rx="105" ry="17" fill="#ffffff"/>
  
  <!-- Beef steak -->
  <path d="M80 100 Q100 75 140 80 Q180 70 210 85 Q230 100 225 120 Q210 140 180 145 Q140 150 100 140 Q75 125 80 100 Z" fill="url(#beefGradient)" filter="url(#shadow)"/>
  
  <!-- Marbling -->
  <g fill="#d2b48c" opacity="0.7">
    <ellipse cx="120" cy="95" rx="8" ry="3"/>
    <ellipse cx="170" cy="105" rx="6" ry="2"/>
    <ellipse cx="150" cy="120" rx="7" ry="3"/>
    <ellipse cx="190" cy="100" rx="5" ry="2"/>
  </g>
  
  <!-- Grill marks -->
  <g stroke="#2c1810" stroke-width="2" opacity="0.8">
    <path d="M90 85 Q150 80 220 90"/>
    <path d="M90 100 Q150 95 220 105"/>
    <path d="M90 115 Q150 110 220 120"/>
    <path d="M95 130 Q150 125 215 135"/>
  </g>
  
  <!-- Charred edges -->
  <g fill="#1a1a1a" opacity="0.6">
    <ellipse cx="85" cy="110" rx="3" ry="8"/>
    <ellipse cx="220" cy="105" rx="2" ry="6"/>
    <ellipse cx="150" cy="75" rx="4" ry="2"/>
  </g>
  
  <!-- Seasoning -->
  <g fill="#000000" opacity="0.5">
    <circle cx="130" cy="90" r="0.5"/>
    <circle cx="180" cy="100" r="0.5"/>
    <circle cx="160" cy="130" r="0.5"/>
    <circle cx="200" cy="95" r="0.5"/>
  </g>
</svg>
