<svg width="400" height="300" viewBox="0 0 400 300" xmlns="http://www.w3.org/2000/svg">
  <defs>
    <radialGradient id="plateGrad" cx="0.5" cy="0.3" r="0.8">
      <stop offset="0%" style="stop-color:#ffffff"/>
      <stop offset="80%" style="stop-color:#f8f9fa"/>
      <stop offset="100%" style="stop-color:#e9ecef"/>
    </radialGradient>
    <radialGradient id="broccoliStemGrad" cx="0.3" cy="0.3" r="0.8">
      <stop offset="0%" style="stop-color:#81C784"/>
      <stop offset="50%" style="stop-color:#66BB6A"/>
      <stop offset="80%" style="stop-color:#4CAF50"/>
      <stop offset="100%" style="stop-color:#388E3C"/>
    </radialGradient>
    <radialGradient id="broccoliFloretGrad" cx="0.3" cy="0.2" r="0.8">
      <stop offset="0%" style="stop-color:#4CAF50"/>
      <stop offset="40%" style="stop-color:#388E3C"/>
      <stop offset="70%" style="stop-color:#2E7D32"/>
      <stop offset="100%" style="stop-color:#1B5E20"/>
    </radialGradient>
    <filter id="shadow">
      <feDropShadow dx="2" dy="3" stdDeviation="3" flood-opacity="0.3"/>
    </filter>
  </defs>
  
  <!-- Background -->
  <rect width="400" height="300" fill="#f5f5f5"/>
  
  <!-- Plate -->
  <ellipse cx="200" cy="220" rx="160" ry="40" fill="url(#plateGrad)" stroke="#ddd" stroke-width="1"/>
  
  <!-- Main broccoli head -->
  <!-- Stem -->
  <ellipse cx="200" cy="190" rx="15" ry="30" fill="url(#broccoliStemGrad)" filter="url(#shadow)"/>
  
  <!-- Main floret cluster -->
  <circle cx="200" cy="140" r="35" fill="url(#broccoliFloretGrad)" filter="url(#shadow)"/>
  
  <!-- Individual florets on main head -->
  <g opacity="0.9">
    <!-- Top florets -->
    <circle cx="185" cy="125" r="8" fill="url(#broccoliFloretGrad)"/>
    <circle cx="200" cy="120" r="9" fill="url(#broccoliFloretGrad)"/>
    <circle cx="215" cy="125" r="8.5" fill="url(#broccoliFloretGrad)"/>
    <circle cx="175" cy="135" r="7" fill="url(#broccoliFloretGrad)"/>
    <circle cx="225" cy="135" r="7.5" fill="url(#broccoliFloretGrad)"/>
    
    <!-- Middle florets -->
    <circle cx="180" cy="145" r="6.5" fill="url(#broccoliFloretGrad)"/>
    <circle cx="195" cy="140" r="7" fill="url(#broccoliFloretGrad)"/>
    <circle cx="205" cy="140" r="6.8" fill="url(#broccoliFloretGrad)"/>
    <circle cx="220" cy="145" r="6.5" fill="url(#broccoliFloretGrad)"/>
    
    <!-- Lower florets -->
    <circle cx="185" cy="155" r="6" fill="url(#broccoliFloretGrad)"/>
    <circle cx="200" cy="160" r="6.5" fill="url(#broccoliFloretGrad)"/>
    <circle cx="215" cy="155" r="6" fill="url(#broccoliFloretGrad)"/>
  </g>
  
  <!-- Smaller florets around main head -->
  <circle cx="150" cy="165" r="18" fill="url(#broccoliFloretGrad)" filter="url(#shadow)"/>
  <ellipse cx="150" cy="185" rx="8" ry="15" fill="url(#broccoliStemGrad)"/>
  
  <circle cx="250" cy="170" r="16" fill="url(#broccoliFloretGrad)" filter="url(#shadow)"/>
  <ellipse cx="250" cy="188" rx="7" ry="12" fill="url(#broccoliStemGrad)"/>
  
  <circle cx="130" cy="190" r="12" fill="url(#broccoliFloretGrad)" filter="url(#shadow)"/>
  <ellipse cx="130" cy="202" rx="5" ry="8" fill="url(#broccoliStemGrad)"/>
  
  <circle cx="270" cy="195" r="14" fill="url(#broccoliFloretGrad)" filter="url(#shadow)"/>
  <ellipse cx="270" cy="208" rx="6" ry="10" fill="url(#broccoliStemGrad)"/>
  
  <!-- Detailed floret texture -->
  <g opacity="0.7">
    <!-- Main head detail florets -->
    <circle cx="190" cy="130" r="3" fill="#2E7D32"/>
    <circle cx="200" cy="125" r="3.5" fill="#2E7D32"/>
    <circle cx="210" cy="130" r="3" fill="#2E7D32"/>
    <circle cx="185" cy="140" r="2.8" fill="#2E7D32"/>
    <circle cx="205" cy="145" r="3.2" fill="#2E7D32"/>
    <circle cx="215" cy="140" r="2.9" fill="#2E7D32"/>
    
    <!-- Left floret details -->
    <circle cx="145" cy="160" r="2.5" fill="#2E7D32"/>
    <circle cx="155" cy="165" r="2.8" fill="#2E7D32"/>
    <circle cx="150" cy="175" r="2.3" fill="#2E7D32"/>
    
    <!-- Right floret details -->
    <circle cx="245" cy="165" r="2.5" fill="#2E7D32"/>
    <circle cx="255" cy="170" r="2.8" fill="#2E7D32"/>
    <circle cx="250" cy="180" r="2.3" fill="#2E7D32"/>
  </g>
  
  <!-- Water droplets -->
  <g fill="#ffffff" opacity="0.8">
    <circle cx="190" cy="135" r="1.5"/>
    <circle cx="210" cy="140" r="1.2"/>
    <circle cx="200" cy="150" r="1.8"/>
    <circle cx="155" cy="170" r="1.3"/>
    <circle cx="245" cy="175" r="1.6"/>
    <circle cx="275" cy="185" r="1.1"/>
  </g>
  
  <!-- Stem texture lines -->
  <g stroke="#388E3C" stroke-width="1" fill="none" opacity="0.6">
    <line x1="195" y1="175" x2="195" y2="205"/>
    <line x1="200" y1="175" x2="200" y2="205"/>
    <line x1="205" y1="175" x2="205" y2="205"/>
    
    <line x1="147" y1="190" x2="147" y2="200"/>
    <line x1="150" y1="190" x2="150" y2="200"/>
    <line x1="153" y1="190" x2="153" y2="200"/>
    
    <line x1="247" y1="192" x2="247" y2="202"/>
    <line x1="250" y1="192" x2="250" y2="202"/>
    <line x1="253" y1="192" x2="253" y2="202"/>
  </g>
  
  <!-- Highlights on florets -->
  <g fill="#81C784" opacity="0.5">
    <ellipse cx="195" cy="135" rx="8" ry="5"/>
    <ellipse cx="205" cy="130" rx="7" ry="4"/>
    <ellipse cx="150" cy="160" rx="5" ry="3"/>
    <ellipse cx="250" cy="165" rx="6" ry="4"/>
  </g>
  
  <!-- Steam effect -->
  <g opacity="0.3" stroke="#ffffff" stroke-width="2" fill="none">
    <path d="M185 110 Q187 100 185 95 Q183 90 185 85"/>
    <path d="M200 105 Q202 95 200 90 Q198 85 200 80"/>
    <path d="M215 110 Q217 100 215 95 Q213 90 215 85"/>
  </g>
  
  <!-- Small herbs/seasoning -->
  <g transform="translate(280, 160)" opacity="0.8">
    <ellipse cx="0" cy="0" rx="2" ry="1" fill="#4CAF50"/>
    <ellipse cx="2" cy="-1" rx="1.5" ry="0.8" fill="#66BB6A"/>
  </g>
</svg>
