<svg width="300" height="200" viewBox="0 0 300 200" fill="none" xmlns="http://www.w3.org/2000/svg">
  <rect width="300" height="200" fill="#fefdf8"/>
  
  <!-- Bowl -->
  <ellipse cx="150" cy="160" rx="90" ry="18" fill="#d6d3d1"/>
  <ellipse cx="150" cy="155" rx="85" ry="15" fill="#e7e5e4"/>
  
  <!-- Brown rice grains -->
  <g fill="#92400e">
    <!-- Back layer -->
    <ellipse cx="120" cy="140" rx="2" ry="4"/>
    <ellipse cx="135" cy="145" rx="2" ry="4"/>
    <ellipse cx="150" cy="142" rx="2" ry="4"/>
    <ellipse cx="165" cy="147" rx="2" ry="4"/>
    <ellipse cx="180" cy="143" rx="2" ry="4"/>
    <ellipse cx="125" cy="150" rx="2" ry="4"/>
    <ellipse cx="140" cy="155" rx="2" ry="4"/>
    <ellipse cx="155" cy="152" rx="2" ry="4"/>
    <ellipse cx="170" cy="157" rx="2" ry="4"/>
    <ellipse cx="130" cy="160" rx="2" ry="4"/>
    <ellipse cx="145" cy="165" rx="2" ry="4"/>
    <ellipse cx="160" cy="162" rx="2" ry="4"/>
    <ellipse cx="175" cy="167" rx="2" ry="4"/>
  </g>
  
  <!-- Mid layer -->
  <g fill="#a16207">
    <ellipse cx="115" cy="135" rx="1.5" ry="3"/>
    <ellipse cx="130" cy="138" rx="1.5" ry="3"/>
    <ellipse cx="145" cy="135" rx="1.5" ry="3"/>
    <ellipse cx="160" cy="140" rx="1.5" ry="3"/>
    <ellipse cx="175" cy="138" rx="1.5" ry="3"/>
    <ellipse cx="122" cy="148" rx="1.5" ry="3"/>
    <ellipse cx="137" cy="153" rx="1.5" ry="3"/>
    <ellipse cx="152" cy="150" rx="1.5" ry="3"/>
    <ellipse cx="167" cy="155" rx="1.5" ry="3"/>
    <ellipse cx="127" cy="158" rx="1.5" ry="3"/>
    <ellipse cx="142" cy="163" rx="1.5" ry="3"/>
    <ellipse cx="157" cy="160" rx="1.5" ry="3"/>
    <ellipse cx="172" cy="165" rx="1.5" ry="3"/>
  </g>
  
  <!-- Top layer -->
  <g fill="#b45309">
    <ellipse cx="118" cy="133" rx="1" ry="2"/>
    <ellipse cx="133" cy="136" rx="1" ry="2"/>
    <ellipse cx="148" cy="133" rx="1" ry="2"/>
    <ellipse cx="163" cy="138" rx="1" ry="2"/>
    <ellipse cx="178" cy="136" rx="1" ry="2"/>
    <ellipse cx="125" cy="146" rx="1" ry="2"/>
    <ellipse cx="140" cy="151" rx="1" ry="2"/>
    <ellipse cx="155" cy="148" rx="1" ry="2"/>
    <ellipse cx="170" cy="153" rx="1" ry="2"/>
    <ellipse cx="130" cy="156" rx="1" ry="2"/>
    <ellipse cx="145" cy="161" rx="1" ry="2"/>
    <ellipse cx="160" cy="158" rx="1" ry="2"/>
    <ellipse cx="175" cy="163" rx="1" ry="2"/>
  </g>
  
  <!-- Label */
  <rect x="20" y="20" width="90" height="25" fill="rgba(255,255,255,0.9)" rx="5"/>
  <text x="65" y="37" text-anchor="middle" fill="#333" font-family="Arial" font-size="14" font-weight="bold">Brown Rice</text>
</svg>
