<svg width="300" height="200" viewBox="0 0 300 200" fill="none" xmlns="http://www.w3.org/2000/svg">
  <defs>
    <radialGradient id="chickenGradient" cx="0.5" cy="0.3" r="0.7">
      <stop offset="0%" stop-color="#fef3e2"/>
      <stop offset="50%" stop-color="#f4e4c1"/>
      <stop offset="100%" stop-color="#e6d5a8"/>
    </radialGradient>
    <filter id="shadow" x="-20%" y="-20%" width="140%" height="140%">
      <feDropShadow dx="2" dy="2" stdDeviation="3" flood-opacity="0.3"/>
    </filter>
  </defs>
  
  <rect width="300" height="200" fill="#faf8f3"/>
  
  <!-- Plate -->
  <ellipse cx="150" cy="160" rx="120" ry="25" fill="#e5e7eb"/>
  <ellipse cx="150" cy="155" rx="115" ry="22" fill="#f3f4f6"/>
  
  <!-- Chicken breast shape with realistic curves -->
  <path d="M70 100 Q90 70 130 80 Q170 75 200 85 Q220 95 225 110 Q220 125 200 135 Q170 140 130 135 Q90 130 70 120 Q65 110 70 100 Z" fill="url(#chickenGradient)" filter="url(#shadow)"/>
  
  <!-- Inner muscle texture -->
  <path d="M80 105 Q100 85 140 90 Q180 85 210 95 Q215 105 210 115 Q180 125 140 120 Q100 115 80 105 Z" fill="#f7e8c8" opacity="0.8"/>
  
  <!-- Grill marks - more realistic -->
  <g stroke="#d4a574" stroke-width="2.5" opacity="0.9">
    <path d="M85 85 Q150 80 215 85"/>
    <path d="M85 95 Q150 90 215 95"/>
    <path d="M85 105 Q150 100 215 105"/>
    <path d="M85 115 Q150 110 215 115"/>
    <path d="M85 125 Q150 120 215 125"/>
  </g>
  
  <!-- Char marks -->
  <g fill="#b8860b" opacity="0.6">
    <ellipse cx="110" cy="90" rx="3" ry="1"/>
    <ellipse cx="170" cy="100" rx="2" ry="1"/>
    <ellipse cx="130" cy="110" rx="2" ry="1"/>
    <ellipse cx="190" cy="95" rx="3" ry="1"/>
  </g>
  
  <!-- Highlights and texture -->
  <ellipse cx="120" cy="95" rx="20" ry="8" fill="#fff" opacity="0.4"/>
  <ellipse cx="180" cy="105" rx="15" ry="6" fill="#fff" opacity="0.3"/>
  
  <!-- Herbs garnish -->
  <g>
    <path d="M200 70 Q205 65 210 70 Q205 75 200 70" fill="#22c55e"/>
    <path d="M90 75 Q95 70 100 75 Q95 80 90 75" fill="#22c55e"/>
    <circle cx="195" cy="75" r="1" fill="#dc2626"/>
    <circle cx="95" cy="80" r="1" fill="#dc2626"/>
  </g>
</svg>
