<svg width="200" height="200" viewBox="0 0 200 200" xmlns="http://www.w3.org/2000/svg">
  <defs>
    <linearGradient id="dietGradient" x1="0%" y1="0%" x2="100%" y2="100%">
      <stop offset="0%" style="stop-color:#8B5CF6;stop-opacity:1" />
      <stop offset="100%" style="stop-color:#7C3AED;stop-opacity:1" />
    </linearGradient>
    <linearGradient id="appleGradient" x1="0%" y1="0%" x2="100%" y2="100%">
      <stop offset="0%" style="stop-color:#EF4444;stop-opacity:1" />
      <stop offset="100%" style="stop-color:#DC2626;stop-opacity:1" />
    </linearGradient>
    <linearGradient id="leafGradient" x1="0%" y1="0%" x2="100%" y2="100%">
      <stop offset="0%" style="stop-color:#22C55E;stop-opacity:1" />
      <stop offset="100%" style="stop-color:#16A34A;stop-opacity:1" />
    </linearGradient>
  </defs>
  
  <!-- Background circle -->
  <circle cx="100" cy="100" r="95" fill="url(#dietGradient)" stroke="#5B21B6" stroke-width="2"/>
  
  <!-- Apple -->
  <ellipse cx="100" cy="105" rx="35" ry="40" fill="url(#appleGradient)"/>
  
  <!-- Apple indent at top -->
  <path d="M 85 75 Q 90 70 95 75 Q 100 65 105 75 Q 110 70 115 75 Q 110 80 100 80 Q 90 80 85 75" fill="url(#appleGradient)"/>
  
  <!-- Apple stem -->
  <rect x="99" y="65" width="2" height="8" fill="#92400E" rx="1"/>
  
  <!-- Apple leaf -->
  <path d="M 105 68 Q 115 65 118 72 Q 115 78 108 75 Q 105 72 105 68" fill="url(#leafGradient)"/>
  
  <!-- Apple highlight -->
  <ellipse cx="85" cy="90" rx="8" ry="12" fill="#FCA5A5" opacity="0.6"/>
  
  <!-- Measuring tape around apple -->
  <path d="M 65 100 Q 60 80 75 70 Q 100 50 125 70 Q 140 80 135 100" 
        fill="none" stroke="#FBBF24" stroke-width="4" stroke-dasharray="3,2"/>
  <path d="M 65 100 Q 60 120 75 130 Q 100 150 125 130 Q 140 120 135 100" 
        fill="none" stroke="#FBBF24" stroke-width="4" stroke-dasharray="3,2"/>
  
  <!-- Measuring tape markings -->
  <g stroke="#D97706" stroke-width="1">
    <line x1="70" y1="73" x2="72" y2="75"/>
    <line x1="80" y1="65" x2="82" y2="67"/>
    <line x1="90" y1="60" x2="92" y2="62"/>
    <line x1="110" y1="60" x2="112" y2="62"/>
    <line x1="120" y1="65" x2="122" y2="67"/>
    <line x1="130" y1="73" x2="132" y2="75"/>
  </g>
  
  <!-- Calendar/plan icon -->
  <rect x="45" y="140" width="30" height="35" fill="white" stroke="#6B7280" stroke-width="1" rx="2"/>
  <rect x="45" y="140" width="30" height="8" fill="#374151" rx="2"/>
  <circle cx="52" cy="137" r="1.5" fill="#6B7280"/>
  <circle cx="68" cy="137" r="1.5" fill="#6B7280"/>
  
  <!-- Calendar grid -->
  <g stroke="#D1D5DB" stroke-width="0.5">
    <line x1="50" y1="152" x2="70" y2="152"/>
    <line x1="50" y1="158" x2="70" y2="158"/>
    <line x1="50" y1="164" x2="70" y2="164"/>
    <line x1="55" y1="148" x2="55" y2="170"/>
    <line x1="60" y1="148" x2="60" y2="170"/>
    <line x1="65" y1="148" x2="65" y2="170"/>
  </g>
  
  <!-- Checkmarks in calendar -->
  <g stroke="#10B981" stroke-width="1.5" fill="none">
    <path d="M 51 155 L 53 157 L 58 152"/>
    <path d="M 61 161 L 63 163 L 68 158"/>
  </g>
  
  <!-- Chart icon -->
  <rect x="125" y="145" width="30" height="25" fill="white" stroke="#6B7280" stroke-width="1" rx="2"/>
  <g stroke="#8B5CF6" stroke-width="2" fill="none">
    <polyline points="130,165 135,160 140,155 145,150 150,145"/>
  </g>
  
  <!-- Chart bars -->
  <rect x="132" y="162" width="2" height="5" fill="#8B5CF6"/>
  <rect x="136" y="158" width="2" height="9" fill="#8B5CF6"/>
  <rect x="140" y="155" width="2" height="12" fill="#8B5CF6"/>
  <rect x="144" y="160" width="2" height="7" fill="#8B5CF6"/>
</svg>
