<svg width="400" height="300" viewBox="0 0 400 300" xmlns="http://www.w3.org/2000/svg">
  <defs>
    <radialGradient id="bowlGrad" cx="0.5" cy="0.2" r="0.8">
      <stop offset="0%" style="stop-color:#ffffff"/>
      <stop offset="70%" style="stop-color:#f8f9fa"/>
      <stop offset="100%" style="stop-color:#dee2e6"/>
    </radialGradient>
    <radialGradient id="quinoaGrad" cx="0.4" cy="0.3" r="0.7">
      <stop offset="0%" style="stop-color:#FFF8E1"/>
      <stop offset="40%" style="stop-color:#FFECB3"/>
      <stop offset="70%" style="stop-color:#FFE082"/>
      <stop offset="100%" style="stop-color:#FFD54F"/>
    </radialGradient>
    <filter id="shadow">
      <feDropShadow dx="1" dy="2" stdDeviation="2" flood-opacity="0.2"/>
    </filter>
  </defs>
  
  <!-- Background -->
  <rect width="400" height="300" fill="#f8f9fa"/>
  
  <!-- Bowl -->
  <ellipse cx="200" cy="150" rx="120" ry="80" fill="url(#bowlGrad)" stroke="#ddd" stroke-width="2" filter="url(#shadow)"/>
  <ellipse cx="200" cy="140" rx="110" ry="70" fill="none" stroke="#eee" stroke-width="1"/>
  
  <!-- Quinoa base -->
  <ellipse cx="200" cy="150" rx="100" ry="60" fill="url(#quinoaGrad)"/>
  
  <!-- Individual quinoa grains -->
  <g opacity="0.9">
    <!-- Create a pattern of tiny quinoa seeds -->
    <circle cx="150" cy="130" r="1.5" fill="#FFCA28"/>
    <circle cx="155" cy="135" r="1.2" fill="#FFF176"/>
    <circle cx="160" cy="132" r="1.3" fill="#FFCC02"/>
    <circle cx="165" cy="140" r="1.1" fill="#FFD54F"/>
    <circle cx="170" cy="125" r="1.4" fill="#FFCA28"/>
    <circle cx="175" cy="138" r="1.2" fill="#FFF176"/>
    <circle cx="180" cy="128" r="1.3" fill="#FFCC02"/>
    <circle cx="185" cy="142" r="1.1" fill="#FFD54F"/>
    <circle cx="190" cy="130" r="1.5" fill="#FFCA28"/>
    <circle cx="195" cy="145" r="1.2" fill="#FFF176"/>
    <circle cx="200" cy="135" r="1.4" fill="#FFCC02"/>
    <circle cx="205" cy="148" r="1.1" fill="#FFD54F"/>
    <circle cx="210" cy="132" r="1.3" fill="#FFCA28"/>
    <circle cx="215" cy="140" r="1.2" fill="#FFF176"/>
    <circle cx="220" cy="138" r="1.4" fill="#FFCC02"/>
    <circle cx="225" cy="145" r="1.1" fill="#FFD54F"/>
    <circle cx="230" cy="130" r="1.3" fill="#FFCA28"/>
    <circle cx="235" cy="142" r="1.2" fill="#FFF176"/>
    <circle cx="240" cy="135" r="1.3" fill="#FFCC02"/>
    <circle cx="245" cy="148" r="1.1" fill="#FFD54F"/>
    
    <!-- More grains in second layer -->
    <circle cx="158" cy="155" r="1.3" fill="#FFCA28"/>
    <circle cx="168" cy="160" r="1.1" fill="#FFF176"/>
    <circle cx="178" cy="152" r="1.4" fill="#FFCC02"/>
    <circle cx="188" cy="165" r="1.2" fill="#FFD54F"/>
    <circle cx="198" cy="158" r="1.3" fill="#FFCA28"/>
    <circle cx="208" cy="162" r="1.1" fill="#FFF176"/>
    <circle cx="218" cy="155" r="1.4" fill="#FFCC02"/>
    <circle cx="228" cy="168" r="1.2" fill="#FFD54F"/>
    
    <!-- Third layer -->
    <circle cx="165" cy="175" r="1.2" fill="#FFCA28"/>
    <circle cx="175" cy="180" r="1.1" fill="#FFF176"/>
    <circle cx="185" cy="172" r="1.3" fill="#FFCC02"/>
    <circle cx="195" cy="185" r="1.1" fill="#FFD54F"/>
    <circle cx="205" cy="178" r="1.2" fill="#FFCA28"/>
    <circle cx="215" cy="182" r="1.1" fill="#FFF176"/>
    <circle cx="225" cy="175" r="1.3" fill="#FFCC02"/>
  </g>
  
  <!-- Texture overlay -->
  <ellipse cx="200" cy="150" rx="95" ry="55" fill="none" stroke="#FFCC02" stroke-width="0.5" opacity="0.3"/>
  
  <!-- Highlight on bowl rim -->
  <ellipse cx="200" cy="140" rx="110" ry="70" fill="none" stroke="#ffffff" stroke-width="2" opacity="0.4"/>
  
  <!-- Some scattered herbs -->
  <g transform="translate(170, 120)">
    <ellipse cx="0" cy="0" rx="3" ry="1" fill="#4CAF50" opacity="0.7"/>
    <ellipse cx="2" cy="-1" rx="2" ry="0.8" fill="#66BB6A" opacity="0.6"/>
  </g>
  
  <g transform="translate(230, 140)">
    <ellipse cx="0" cy="0" rx="2.5" ry="1" fill="#4CAF50" opacity="0.7"/>
    <ellipse cx="1" cy="-1" rx="1.5" ry="0.8" fill="#66BB6A" opacity="0.6"/>
  </g>
</svg>
