<svg width="300" height="200" viewBox="0 0 300 200" fill="none" xmlns="http://www.w3.org/2000/svg">
  <rect width="300" height="200" fill="#f0fdf4"/>
  
  <!-- Spinach leaves -->
  <g>
    <!-- Leaf 1 -->
    <path d="M80 100 Q90 70 120 80 Q130 90 125 110 Q115 120 100 115 Q85 110 80 100 Z" fill="#16a34a"/>
    <path d="M82 102 Q88 75 115 85 Q125 95 120 112 Q110 118 98 113 Q87 108 82 102 Z" fill="#22c55e"/>
    
    <!-- Leaf 2 -->
    <path d="M140 80 Q160 60 180 75 Q185 90 175 105 Q165 115 150 110 Q140 100 140 80 Z" fill="#16a34a"/>
    <path d="M142 82 Q158 65 175 78 Q180 88 172 103 Q162 113 148 108 Q142 98 142 82 Z" fill="#22c55e"/>
    
    <!-- Leaf 3 -->
    <path d="M190 110 Q210 95 220 115 Q225 130 210 140 Q195 145 185 135 Q180 125 190 110 Z" fill="#16a34a"/>
    <path d="M192 112 Q208 100 215 118 Q220 128 208 138 Q193 143 187 133 Q182 127 192 112 Z" fill="#22c55e"/>
    
    <!-- Leaf 4 -->
    <path d="M110 140 Q130 125 150 135 Q155 150 145 165 Q135 170 120 165 Q110 155 110 140 Z" fill="#16a34a"/>
    <path d="M112 142 Q128 130 145 138 Q150 148 142 163 Q132 168 118 163 Q112 153 112 142 Z" fill="#22c55e"/>
    
    <!-- Leaf 5 -->
    <path d="M160 150 Q175 140 185 155 Q190 170 180 180 Q170 185 160 180 Q155 170 160 150 Z" fill="#16a34a"/>
    <path d="M162 152 Q173 145 180 158 Q185 168 178 178 Q168 183 162 178 Q157 172 162 152 Z" fill="#22c55e"/>
  </g>
  
  <!-- Leaf veins -->
  <g stroke="#15803d" stroke-width="1" fill="none" opacity="0.7">
    <path d="M85 95 Q100 85 115 95"/>
    <path d="M90 105 Q100 95 110 105"/>
    <path d="M145 75 Q165 70 175 85"/>
    <path d="M150 90 Q165 85 170 95"/>
    <path d="M195 115 Q205 110 215 125"/>
    <path d="M200 130 Q205 125 210 135"/>
    <path d="M115 145 Q130 140 145 150"/>
    <path d="M120 155 Q130 150 140 160"/>
    <path d="M165 155 Q175 150 180 165"/>
    <path d="M170 170 Q175 165 180 175"/>
  </g>
  
  <!-- Label -->
  <rect x="20" y="20" width="70" height="25" fill="rgba(255,255,255,0.9)" rx="5"/>
  <text x="55" y="37" text-anchor="middle" fill="#333" font-family="Arial" font-size="14" font-weight="bold">Spinach</text>
</svg>
